<svg width="222" height="282" viewBox="0 0 222 282" fill="none" xmlns="http://www.w3.org/2000/svg">
<path d="M190.339 38.5166L221.913 37.7441L222 60.7682L190.231 60.0601L206.732 87.011L186.728 98.1904L171.482 70.9391L156.279 98.2548L136.296 86.8178L152.797 60.2318L120.704 60.7253L120.899 37.8299L152.905 38.6882L136.167 11.5872L156.041 0L171.655 27.8092L186.771 0.107288L206.732 11.5442L190.339 38.5166Z" fill="black"/>
<path d="M135.356 202.071V216.641C135.356 230.61 126.706 244.858 107.243 244.858C87.7793 244.858 78.8046 230.61 78.8046 216.641V162.267H173.439V125.424H78.7397V86.5H39.2293V125.403H0V162.246H39.2077V214.538C39.2077 253.162 65.8723 282.001 107.178 282.001C148.483 282.001 174.867 253.183 174.867 214.538V202.05L135.356 202.071Z" fill="black"/>
</svg>
